<?xml version="1.0" encoding="utf-8"?>
<svg xmlns="http://www.w3.org/2000/svg" viewBox="0 0 200 200" style="fill-rule:evenodd;">
  <g transform="matrix(9.52381,0,0,9.52381,-14.2857,-14.2857)">
    <path
      d="M13.063,7.053L13.59,5.78L11.47,3.66C11.049,3.238 10.476,3 9.879,3L4.5,3C2.854,3 1.5,4.354 1.5,6C1.5,6 1.5,18 1.5,18C1.5,19.646 2.854,21 4.5,21C4.5,21 19.5,21 19.5,21C21.146,21 22.5,19.646 22.5,18L22.5,9C22.5,7.354 21.146,6 19.5,6C19.5,6 14.122,6 14.122,6C13.923,6 13.732,5.921 13.592,5.78L13.061,7.06L13.063,7.053ZM21,12C21,11.177 20.323,10.5 19.5,10.5L4.5,10.5C3.677,10.5 3,11.177 3,12L3,18C3,18.823 3.677,19.5 4.5,19.5L19.5,19.5C20.323,19.5 21,18.823 21,18L21,12ZM12.559,6.868C12.549,6.859 12.539,6.85 12.53,6.84L10.409,4.72C10.269,4.579 10.078,4.5 9.879,4.5C9.879,4.5 4.5,4.5 4.5,4.5C3.677,4.5 3,5.177 3,6L3,9.407C3.442,9.148 3.955,9 4.5,9C4.5,9 19.5,9 19.5,9C20.045,9 20.558,9.148 21,9.407L21,9C21,8.177 20.323,7.5 19.5,7.5L14.12,7.5C13.538,7.499 12.978,7.273 12.559,6.868Z" />
  </g>
</svg>
