<?xml version="1.0" encoding="utf-8"?>
<svg xmlns="http://www.w3.org/2000/svg" viewBox="0 0 200 200">
  <g transform="matrix(8.91924,0,0,8.91924,-7.02747,2.3385)">
    <path
      d="M12,0.25C12.285,0.25 12.547,0.412 12.673,0.668L15.731,6.865L22.57,7.859C22.937,7.913 23.211,8.231 23.211,8.601C23.211,8.803 23.13,8.997 22.985,9.138L18.037,13.961L19.205,20.772C19.212,20.814 19.216,20.856 19.216,20.899C19.216,21.311 18.877,21.649 18.466,21.649C18.344,21.649 18.225,21.62 18.117,21.563L12,18.347L5.883,21.563C5.775,21.619 5.656,21.649 5.534,21.649C5.123,21.649 4.784,21.31 4.784,20.899C4.784,20.857 4.788,20.815 4.795,20.773L5.963,13.961L1.015,9.138C0.87,8.997 0.788,8.803 0.788,8.6C0.788,8.229 1.064,7.911 1.431,7.858L8.269,6.865L11.328,0.668C11.454,0.413 11.715,0.25 12,0.25ZM12,2.695L9.44,7.882C9.331,8.103 9.119,8.257 8.875,8.292L3.15,9.124L7.293,13.162C7.469,13.334 7.55,13.583 7.508,13.826L6.53,19.528L11.651,16.836C11.869,16.721 12.131,16.721 12.349,16.836L17.469,19.528L16.492,13.826C16.45,13.583 16.531,13.334 16.707,13.162L20.85,9.124L15.125,8.293C14.881,8.258 14.669,8.104 14.56,7.883L12,2.694L12,2.695Z" />
  </g>
</svg>
