<?xml version="1.0" encoding="utf-8"?>
<svg xmlns="http://www.w3.org/2000/svg" aria-hidden="true" viewBox="0 0 200 200">
  <g transform="matrix(10.2564,0,0,10.2564,-23.0769,-23.0769)">
    <path
      d="M13.5,5.25L5.25,5.25C3.604,5.25 2.25,6.604 2.25,8.25L2.25,18.75C2.25,20.396 3.604,21.75 5.25,21.75L15.75,21.75C17.396,21.75 18.75,20.396 18.75,18.75L18.75,10.5C18.75,10.086 18.414,9.75 18,9.75C17.586,9.75 17.25,10.086 17.25,10.5L17.25,18.75C17.25,19.573 16.573,20.25 15.75,20.25C15.75,20.25 5.25,20.25 5.25,20.25C4.427,20.25 3.75,19.573 3.75,18.75C3.75,18.75 3.75,8.25 3.75,8.25C3.75,7.427 4.427,6.75 5.25,6.75C5.25,6.75 13.5,6.75 13.5,6.75C13.914,6.75 14.25,6.414 14.25,6C14.25,5.586 13.914,5.25 13.5,5.25ZM21,2.25L15.75,2.25C15.336,2.25 15,2.586 15,3C15,3.414 15.336,3.75 15.75,3.75L19.189,3.75L6.97,15.97C6.677,16.262 6.677,16.738 6.97,17.03C7.262,17.323 7.738,17.323 8.03,17.03L20.25,4.811L20.25,8.25C20.25,8.664 20.586,9 21,9C21.414,9 21.75,8.664 21.75,8.25L21.75,3C21.75,2.939 21.743,2.88 21.729,2.823L21.726,2.813L21.716,2.777L21.704,2.742L21.699,2.728L21.695,2.718L21.691,2.708L21.686,2.698L21.68,2.684L21.676,2.675L21.672,2.668L21.664,2.651L21.646,2.619L21.64,2.61C21.61,2.56 21.573,2.513 21.53,2.47C21.487,2.427 21.44,2.39 21.39,2.36L21.381,2.354L21.349,2.336L21.316,2.32L21.302,2.314L21.292,2.309L21.282,2.305L21.272,2.301L21.258,2.296L21.248,2.292L21.24,2.29L21.223,2.284L21.187,2.274L21.151,2.265L21.114,2.259L21.077,2.254L21.039,2.251L21,2.25Z" />
  </g>
</svg>