<?xml version="1.0" encoding="utf-8"?>
<svg xmlns="http://www.w3.org/2000/svg" aria-hidden="true" viewBox="0 0 200 200">
  <g transform="matrix(9.52381,0,0,9.52381,-14.2857,-14.2857)">
    <path
      d="M12,21C11.04,21 10.25,20.21 10.25,19.25C10.25,18.29 11.04,17.5 12,17.5C12.96,17.5 13.75,18.29 13.75,19.25C13.75,20.21 12.96,21 12,21ZM8.75,19.25C8.75,21.033 10.217,22.5 12,22.5C13.783,22.5 15.25,21.033 15.25,19.25C15.25,17.467 13.783,16 12,16C10.217,16 8.75,17.467 8.75,19.25ZM5.75,6.5C4.79,6.5 4,5.71 4,4.75C4,3.79 4.79,3 5.75,3C6.71,3 7.5,3.79 7.5,4.75C7.5,5.71 6.71,6.5 5.75,6.5ZM2.5,4.75C2.5,6.533 3.967,8 5.75,8C7.533,8 9,6.533 9,4.75C9,2.967 7.533,1.5 5.75,1.5C3.967,1.5 2.5,2.967 2.5,4.75ZM18.25,6.5C17.29,6.5 16.5,5.71 16.5,4.75C16.5,3.79 17.29,3 18.25,3C19.21,3 20,3.79 20,4.75C20,5.71 19.21,6.5 18.25,6.5ZM15,4.75C15,6.533 16.467,8 18.25,8C20.033,8 21.5,6.533 21.5,4.75C21.5,2.967 20.033,1.5 18.25,1.5C16.467,1.5 15,2.967 15,4.75Z" />
  </g>
  <g transform="matrix(9.52381,0,0,9.52381,-14.2857,-14.2857)">
    <path
      d="M6.5,7.75L6.5,8.75C6.5,9.984 7.516,11 8.75,11L15.25,11C16.484,11 17.5,9.984 17.5,8.75L17.5,7.75L19,7.75L19,8.75C19,10.807 17.307,12.5 15.25,12.5L8.75,12.5C6.693,12.5 5,10.807 5,8.75L5,7.75L6.5,7.75Z" />
  </g>
  <g transform="matrix(9.52381,0,0,9.52381,-14.2857,-14.2857)">
    <rect x="11.25" y="11.25" width="1.5" height="5" />
  </g>
</svg>