<?xml version="1.0" encoding="utf-8"?>
<svg xmlns="http://www.w3.org/2000/svg" viewBox="0 0 200 200">
  <path d="M100.6,1.6C45.4,1.6,0.5,46.4,0.5,101.7c0,44.2,28.7,81.7,68.4,95c5,1,6.8-2.1,6.8-4.8
    c0-2.3-0.1-10.2-0.1-18.6c-27.9,6.1-33.7-11.8-33.7-11.8c-4.4-11.6-11.1-14.6-11.1-14.6c-9.1-6.1,0.7-6.1,0.7-6.1
    c10.1,0.7,15.4,10.2,15.4,10.2c9,15.2,23.3,10.9,29.1,8.3c0.8-6.4,3.4-10.9,6.3-13.4c-22.2-2.4-45.6-11.1-45.6-49.3
    c0-10.9,4-19.9,10.2-26.9c-1-2.4-4.4-12.8,1-26.6c0,0,8.4-2.7,27.6,10.2c8-2.1,16.6-3.3,25-3.3s17.1,1.1,25,3.3
    c19-12.9,27.6-10.2,27.6-10.2c5.4,13.8,2,24,1,26.6c6.4,6.9,10.2,15.8,10.2,26.8c0,38.4-23.3,46.9-45.8,49.3
    c3.7,3.1,6.8,9.1,6.8,18.6c0,13.4-0.1,24.2-0.1,27.6c0,2.7,1.8,5.8,6.8,4.8c39.8-13.2,68.4-50.7,68.4-95
    C200.7,46.5,155.9,1.6,100.6,1.6z"/>
  <path d="M38.5,145.3c-0.1,0.4-1,0.7-1.7,0.3c-0.7-0.3-1.1-1-0.8-1.4c0.1-0.4,1-0.7,1.7-0.3
    C38.4,144.2,38.6,144.9,38.5,145.3L38.5,145.3z"/>
  <path d="M42.5,150c-0.4,0.4-1.4,0.1-2-0.4c-0.7-0.7-0.8-1.7-0.3-2.1c0.4-0.4,1.3-0.1,2,0.4
    C42.9,148.5,42.9,149.5,42.5,150L42.5,150z"/>
  <path d="M46.5,155.6c-0.7,0.4-1.7,0-2.1-0.8c-0.7-0.8-0.7-2,0-2.3c0.7-0.4,1.7,0,2.1,0.8
    C47.2,154.1,47.2,155.3,46.5,155.6L46.5,155.6z"/>
  <path d="M51.9,161.2c-0.4,0.7-1.7,0.4-2.7-0.3c-0.8-0.8-1.1-2-0.4-2.4c0.4-0.7,1.7-0.4,2.7,0.3
    C52.3,159.4,52.4,160.6,51.9,161.2L51.9,161.2z"/>
  <path d="M59.4,164.5c-0.1,0.8-1.3,1.1-2.4,0.8c-1.1-0.3-1.8-1.3-1.7-2c0.1-0.8,1.3-1.1,2.4-0.8
    C58.8,162.7,59.5,163.7,59.4,164.5L59.4,164.5z"/>
  <path d="M67.5,165.1c0,0.8-1,1.4-2.1,1.4s-2.1-0.7-2.1-1.4c0-0.7,1-1.4,2.1-1.4C66.5,163.6,67.5,164.2,67.5,165.1
    L67.5,165.1z"/>
  <path d="M75.2,163.7c0.1,0.8-0.7,1.7-1.8,1.8c-1.1,0.1-2.1-0.3-2.3-1.1c-0.1-0.8,0.7-1.7,1.8-1.8
    C73.9,162.4,74.9,162.9,75.2,163.7L75.2,163.7z"/>
</svg>
