<?xml version="1.0" encoding="utf-8"?>
<svg xmlns="http://www.w3.org/2000/svg" viewBox="0 0 200 200">
  <path d="M63,183.2c75.3,0,116.6-62.5,116.6-116.6c0-1.8,0-3.4,0-5.3c8-5.8,15-13,20.5-21.1
    c-7.4,3.3-15.5,5.4-23.7,6.4c8.4-5.1,15-13.1,18-22.7c-8,4.8-16.8,8.1-26,9.8c-15.5-16.5-41.5-17.3-58-1.8
    c-10.7,10-15.1,25-11.8,39.1c-33-1.7-63.7-17.1-84.5-42.8C3.2,47.1,8.7,71,26.7,83c-6.4-0.1-12.8-2-18.7-5.1c0,0.1,0,0.3,0,0.4
    c0,19.5,13.8,36.4,32.8,40.1c-6,1.7-12.3,2-18.5,0.7c5.3,16.7,20.8,28.1,38.4,28.5c-14.5,11.5-32.5,17.7-50.8,17.7
    c-3.3,0-6.4-0.1-9.8-0.4C18.8,176.8,40.6,183.2,63,183.2"/>
</svg>
