<?xml version="1.0" encoding="utf-8"?>
<svg xmlns="http://www.w3.org/2000/svg" viewBox="0 0 200 200">
  <path d="M30.4,39.5c-1.7,0-3.2,0.6-3.9,1.8c-0.8,1.2-0.6,2.8,0.2,4.4l19.5,33.8c0,0.1,0,0.1,0,0.2
    l-30.6,54.1c-0.8,1.6-0.8,3.2,0,4.4c0.7,1.2,2,2,3.8,2h28.8c4.3,0,6.4-2.9,7.9-5.6c0,0,30-53,31.1-55.1C87,79.3,67.3,44.9,67.3,44.9
    c-1.4-2.6-3.6-5.4-8-5.4L30.4,39.5L30.4,39.5z"/>
  <path d="M151.6,0c-4.3,0-6.2,2.7-7.7,5.5c0,0-62.1,110.2-64.2,113.8c0.1,0.2,41,75.2,41,75.2
    c1.4,2.6,3.6,5.5,8.1,5.5h28.8c1.7,0,3.1-0.7,3.8-1.8c0.8-1.2,0.7-2.9-0.1-4.5l-40.7-74.3c0-0.1,0-0.1,0-0.2L184.5,6.3
    c0.8-1.6,0.8-3.2,0.1-4.5c-0.7-1.2-2.1-1.8-3.8-1.8L151.6,0L151.6,0z"/>
</svg>
